<svg xmlns="http://www.w3.org/2000/svg" xmlns:xlink="http://www.w3.org/1999/xlink" id="katman_1" data-name="katman 1" viewBox="0 0 1073.74 305.76"><defs><clipPath id="clippath"><rect class="cls-1" x="10.51" y="2.99" width="321.78" height="302.77"></rect></clipPath><clipPath id="clippath-1"><rect class="cls-1" x="10.51" y="2.99" width="321.78" height="302.77"></rect></clipPath></defs><g class="cls-7"><g class="cls-7"><text class="cls-6" transform="translate(346.41 130.46) scale(1.02 1)"><tspan x="0" y="0">C</tspan></text><text class="cls-8" transform="translate(394.8 130.46) scale(1.02 1)"><tspan x="0" y="0"> </tspan></text><text class="cls-2" transform="translate(394.8 130.46) scale(1.02 1)"><tspan x="0" y="0">P</tspan></text><text class="cls-8" transform="translate(428.62 130.46) scale(1.02 1)"><tspan x="0" y="0"> </tspan></text><text class="cls-3" transform="translate(428.49 130.46) scale(1.02 1)"><tspan x="0" y="0">A</tspan></text><text class="cls-8" transform="translate(476.52 130.46) scale(1.02 1)"><tspan x="0" y="0"> </tspan></text><text class="cls-6" transform="translate(476.87 130.46) scale(1.02 1)"><tspan x="0" y="0" xml:space="preserve"> INTERN</tspan></text><text class="cls-8" transform="translate(760.96 130.46) scale(1.02 1)"><tspan x="0" y="0"> </tspan></text><text class="cls-5" transform="translate(760.96 130.46) scale(1.02 1)"><tspan x="0" y="0">A</tspan></text><text class="cls-8" transform="translate(805.37 130.46) scale(1.02 1)"><tspan x="0" y="0"> </tspan></text><text class="cls-6" transform="translate(805.31 130.46) scale(1.02 1)"><tspan x="0" y="0">TION</tspan><tspan class="cls-15" x="169.85" y="0">A</tspan></text><text class="cls-8" transform="translate(1030.95 130.46) scale(1.02 1)"><tspan x="0" y="0"> </tspan></text><text class="cls-4" transform="translate(1030.95 130.46) scale(1.02 1)"><tspan x="0" y="0">L</tspan></text></g><g class="cls-7"><text class="cls-6" transform="translate(573.1 215.8) scale(1.02 1)"><tspan x="0" y="0">TURKE</tspan></text><text class="cls-8" transform="translate(814.9 215.8) scale(1.02 1)"><tspan x="0" y="0"> </tspan></text><text class="cls-4" transform="translate(814.9 215.8) scale(1.02 1)"><tspan x="0" y="0">Y</tspan></text></g></g><g class="cls-16"><g class="cls-11"><g><path class="cls-14" d="M10.57,305.59V3.06h321.53v302.53H10.57ZM13.06,147.29c-1.48,31.84,7.31,63.31,25.08,89.78.19.28.38.56.57.84.52.77,1.05,1.53,1.59,2.29,27.88,39.32,73.09,62.68,121.29,62.69,48.2,0,93.41-23.36,121.3-62.67.3-.42.6-.85.89-1.27.09-.13.18-.26.27-.39.17-.25.34-.5.52-.75.16-.24.32-.47.48-.71,17.68-26.33,26.48-57.63,25.12-89.32C306.73,68.32,241.38,5.64,161.84,5.5,82.31,5.37,16.76,67.85,13.06,147.29Z"></path><path class="cls-12" d="M310.16,147.78l-1.14-.46h-59.46c-.71,0-1.39-.44-1.92-.23l-.04-.92c-.07-1.64.23-3.38-.03-5l-1.18-7.38c-.2-1.23.59-4.18-.43-5.22-1.21-1.22-3.75-3.3-5.21-4.49.09-1.06.12-2.67.07-3.8,0-.23-.61-.38-.81-.45l-7.58-2.91v-3.45c0-.18-.53-.32-.71-.36l-10.48-2.24v-3.56s-.91-.11-.91-.11l-10.68-1.26-.03-3.99c-.06-.3-.85-.19-1.14-.2l-10.59-.31-13.63,3.24-6-6.9-15.71-17.49c-.11-.12-.35-.41-.44-.35s-.26.18-.34.26l-15.56,16.94c4.84,3.03,10.56,5.06,15.75,7.39l7.56-3.28,5.35,6.52-13.13,5.65-21.47-9.47-7.45,8.75,12.85,5.74,3.95,1.77,4.1,1.8,1.82.8,4.12,1.81,1.35.53.48.47c.12.12.46-.12.71-.23l28.46-12.46.69,1.33,2.93,1.29c.04.92.08,2.22.26,3.05l.2.41.06.41-30.81,13.8c-.83.37-1.55.58-2.3.79l-34.17-15.12-7.51,8.8,4.47,2.01,2.11.94,4.59,2.03,2.16.96,23.45,10.46,2.47,1.12c.46.21,1.08.43,1.51.59-.02.21.9.58,1.21.43l33.23-14.76,3.02,3.83c1.14,1.44-1.48,2.16-3.31,4.42-.12.15-.3.49-.29.68l-32.88,14-47.14-20.42-7.47,8.78,7.63,3.37c.06.16.31.47-.74.47H13.95c-.6.43-.6.45-.89.68C16.76,67.85,82.31,5.37,161.84,5.5c79.53.13,144.88,62.82,148.32,142.27ZM162.92,61.11c.39-3.22.56-6.02,1.09-9.12.57-3.27,3.52-6.38,6.85-6.78l9.25-1.11c.26-.03.57-.58.51-.77s-.42-.54-.69-.56l-8.49-.77c-3.62-.33-6.97-2.88-7.41-6.61l-1.14-9.8c-.04-.3-.53-.73-.78-.67-.21.05-.54.47-.57.71l-1,9.51c-.35,3.3-3.54,6.32-6.79,6.66l-9.15.93c-.31.03-.72.51-.68.78.03.21.44.56.67.58l9.43,1.12c3.15.37,6.19,3.33,6.52,6.51l.98,9.52c.04.37.46.78.76.75.23-.02.59-.5.63-.85ZM133.51,64.52c1.62-.47,3.17.09,4.79-.96-2.61-.8-6.87.32-7.64-3.36-.36-1.71-.13-3.36-.9-5.11-.96,2.68.19,7.55-4.28,7.92-1.35.11-2.62.16-4.15.61,2,1.27,6.75-.4,7.71,3.74.39,1.67-.07,3.26.87,4.9.9-2.86-.22-6.64,3.61-7.74ZM193.81,72.05l.51-4.13c.25-2.01,2.03-3.3,3.94-3.47,1.34-.12,2.48-.04,3.84-.73-2.41-.9-7.2.37-7.73-3.65-.22-1.64-.34-3.13-.73-4.88-.93,1.7-.47,3.19-.83,4.78-.99,4.39-5.6,2.6-7.82,3.86,1.61.42,2.95.53,4.48.7s3.14,1.39,3.32,3.09l.46,4.26c.02.14.54.32.56.16Z"></path><path class="cls-9" d="M159.33,165.39c-.06.07-.32.55-.32.75l-.08,3.21h-9.1c-.32,0-.88-.09-1.12-.19-11.64-5.1-34.77-15.14-45.78-19.88-.78-1.93-8.61,8.66-8.39,8.56.57-.27,34.88,15.13,38.7,16.51l-.15.85-4.32-1.43-8.37,2.97c-.47.17-1.16.23-1.59.24l-29.9-13.24-7.42,8.77,22.32,9.92c-2.63.94-8.26,3.45-11.05,3.74l-.7-.49-15.49-6.72-7.42,8.76,15.9,7.01c.6.27,1.17.44,1.72.5.81,2.17,2.1,4.18,3.54,6.34l.4-4.5c4.72,4.37,8.46,8.63,13.9,11.88l.12-5.48c7.07,2.79,10.38,5.58,18.09,8.1,1.19.39,2.25.78,3.3,1.23l35.59,15.43c29.62-12.16,59.22-25.21,88.63-38.5l4.51-2.04-7.53-8.71-85.6,36.96-13.53-5.85c1.48-.3,4,.38,6.65-.14l.24-5.05,6.64,2.65c4.9-1.29,9.27-4.26,14.37-5.81,2.23-.68,7.65.44,7.71-.62l.11-1.88c.03-.49.18-1.03.36-1.37l4.28-1.64c.98-.38,21.89-2.9,22.05-5.73l.24-4.28,12.47-5.36,1.5-.66,17.6-7.69-5.15-6.13c1.09-.92,5.57-4.28,5.58-5.56l.03-5.65c2.06-1.45,4.89-5.62,4.78-8.12.53-.2,1.21.22,1.92.22h59.46s1.14.47,1.14.47c1.37,31.69-7.43,62.99-25.12,89.32-.28-.37-.6-.78-.96-1.04H39.6c-.72,0-1.15.44-1.47,1.02-17.77-26.47-26.56-57.94-25.08-89.78.29-.23.29-.26.89-.68h100.09c1.05,0,.8-.31.74-.47l44.55,19.25Z"></path><path class="cls-17" d="M285.05,237.1c-.16.24-.32.47-.48.71-.25-.08-.61-.08-.61.07l.1.69c-.09.13-.18.26-.27.39l-.86.22c-.25.09-.43.92-.03,1.05-27.89,39.31-73.1,62.67-121.3,62.67-48.2,0-93.41-23.37-121.29-62.69.1-1.11-.35-2.29-1.59-2.29-.19-.28-.38-.56-.57-.84.32-.58.75-1.02,1.47-1.02h244.48c.36.26.67.68.96,1.04Z"></path><path class="cls-9" d="M40.3,240.2c-.54-.76-1.07-1.52-1.59-2.29,1.24,0,1.7,1.18,1.59,2.29Z"></path><path class="cls-9" d="M283.78,238.95c-.3.43-.59.85-.89,1.27-.41-.13-.23-.96.03-1.05l.86-.22Z"></path><path class="cls-9" d="M284.56,237.81c-.17.25-.34.5-.52.75l-.1-.69c0-.14.36-.14.61-.07Z"></path><path class="cls-13" d="M194.65,140.41l.14,3.08,46.7,17.04c.52.19.95.28,1.36.34,0,1.29-4.49,4.64-5.58,5.56l5.15,6.13-17.6,7.69-1.5.66-12.47,5.36-.21-1.7-31.21-30.42-.19,5.02c-1.61.49-3.11,1.18-4.71,1.9l4.74-.56,31.35,30.03c-.16,2.83-21.07,5.35-22.05,5.73l-4.28,1.64c-.42-.09-.25-.77-.44-1.24l-13.57-34.05-.29.57c-1.94.61-3.74,1.44-5.72,2.39,2.11.15,3.93.15,5.78.04l13.78,35.54c-.06,1.06-5.48-.06-7.71.62-5.1,1.55-9.47,4.52-14.37,5.81l.04-5.98-6.75-.02c-.23,1.14.13,2.32.08,3.35l-.24,5.05c-2.65.52-5.17-.16-6.65.14-.76-.33-1.68-.43-2.63-.6-6.46-1.14-12.61-2.83-18.93-4.74l-.03,7.28-.48.75c-1.05-.45-2.11-.84-3.3-1.23-7.71-2.51-11.02-5.31-18.09-8.1l-.12,5.48c-5.45-3.25-9.18-7.51-13.9-11.88l-.4,4.5c-1.44-2.16-2.73-4.16-3.54-6.34l-2.17-5.83c2.84-1.27,5.79-1.7,8.16-3.23,2.8-.29,8.42-2.8,11.05-3.74,4.99-1.79,10.31-3.08,14.99-5.45.44,0,1.12-.07,1.59-.24l8.37-2.97,4.32,1.43.15-.85.21-1.01,5.81-.12.22-1.22h9.17s.06-2.84.06-2.84c.24.11.8.19,1.12.19h9.1s.08-3.22.08-3.22c0-.2.26-.69.32-.75.65.28,1.57.25,2.42.19v-11.18s32.9-14,32.9-14ZM231.31,175.52c.22-2.02.19-3.72.02-5.45l-43.5-22.67c-.14,1.72-.14,3.23-.02,4.86l43.5,23.26Z"></path><path class="cls-13" d="M232.44,116.93l7.58,2.91s-.31.28-.52.28l-40.84,1.2c.53,1.11,1.25,1.87,2.06,2.67l40.04.1c1.46,1.19,4,3.26,5.21,4.49l-.3.16-42.42-1.78,3.48,4.15,39.67,2.69,1.18,7.38-37.45-6.33c1.17,1.8,2.54,3.22,3.92,4.82l33.56,6.5.04.92c.11,2.5-2.72,6.67-4.78,8.12l-47.93-15.48c1.83-2.27,4.45-2.98,3.31-4.42l-3.02-3.83-33.23,14.76c-.32.14-1.24-.22-1.21-.43l.96.06-.05-11.85c.75-.21,1.47-.42,2.3-.79l30.81-13.8c.08.04.32.22.31.11,0-.14.05-.41-.05-.43l-.32-.09-.2-.41,37.9-1.69Z"></path><path class="cls-13" d="M208.48,101.75c-.3.21-.73.33-1.24.43l-21.45,4.08c.63.98.98,1.39,1.59,1.98l22.28-2.3,10.68,1.26s-.37.22-.49.24l-28.73,3.07-2.42-.68c.82,1.07,1.42,1.77,2.19,2.56-.02.15-.16.4-.22.55l-28.46,12.46c-.26.11-.6.34-.71.23l-.48-.47.73.04v-11.78s13.12-5.65,13.12-5.65l-5.35-6.52-7.56,3.28-.19-24.33c.08-.08.24-.2.34-.26s.34.23.44.35l15.71,17.49,6,6.9,13.63-3.24,10.59.31Z"></path><path class="cls-14" d="M161.76,154.4v11.18c-.86.06-1.78.1-2.43-.19l-44.55-19.25-7.63-3.37,7.47-8.78,47.14,20.42Z"></path><path class="cls-14" d="M161.69,134.02l.05,11.85-.96-.06c-.42-.16-1.05-.39-1.51-.59l-2.47-1.12-23.45-10.46-2.16-.96-4.59-2.03-2.11-.94-4.47-2.01,7.51-8.8,34.17,15.12Z"></path><polygon class="cls-14" points="161.74 113.42 161.74 125.2 161.02 125.16 159.67 124.63 155.55 122.81 153.73 122.01 149.63 120.21 145.67 118.44 132.82 112.7 140.27 103.95 161.74 113.42"></polygon><path class="cls-14" d="M162.92,61.11c-.04.35-.4.83-.63.85-.3.03-.72-.38-.76-.75l-.98-9.52c-.33-3.18-3.37-6.13-6.52-6.51l-9.43-1.12c-.23-.03-.64-.37-.67-.58-.04-.27.37-.75.68-.78l9.15-.93c3.26-.33,6.45-3.36,6.79-6.66l1-9.51c.03-.25.36-.66.57-.71.25-.06.74.37.78.67l1.14,9.8c.43,3.74,3.79,6.29,7.41,6.61l8.49.77c.26.02.63.37.69.56s-.24.74-.51.77l-9.25,1.11c-3.33.4-6.28,3.51-6.85,6.78-.54,3.1-.7,5.9-1.09,9.12Z"></path><path class="cls-10" d="M242.86,155.21l-.03,5.65c-.41-.06-.83-.15-1.36-.34l-46.7-17.04-.14-3.08c0-.19.17-.53.29-.68l47.93,15.48Z"></path><path class="cls-14" d="M161.96,104.53c-5.19-2.33-10.91-4.36-15.75-7.39l15.56-16.94.19,24.33Z"></path><path class="cls-10" d="M245.96,128.57c1.03,1.04.24,3.99.43,5.22l-39.67-2.69-3.48-4.15,42.42,1.78.3-.16Z"></path><path class="cls-10" d="M247.58,141.17c.26,1.62-.05,3.36.03,5l-33.56-6.5c-1.38-1.6-2.75-3.03-3.92-4.82l37.45,6.33Z"></path><path class="cls-10" d="M240.76,124.08l-40.04-.1c-.8-.8-1.53-1.55-2.06-2.67l40.84-1.2c.21,0,.56-.24.52-.28.2.08.8.22.81.45.05,1.12.02,2.74-.07,3.8Z"></path><path class="cls-10" d="M232.44,116.93l-37.9,1.69c-.18-.83-.21-2.13-.26-3.05l37.16-2.24.29-.21c.17.04.7.18.7.36v3.45Z"></path><path class="cls-10" d="M221.25,110.88l-29.9,3.4-.69-1.33c.06-.14.2-.4.22-.55l.23-1.88,28.73-3.07c.12-.01.51-.22.49-.24l.9.11v3.56Z"></path><polygon class="cls-13" points="221.25 110.88 231.73 113.12 231.44 113.33 194.28 115.56 191.36 114.28 221.25 110.88"></polygon><path class="cls-10" d="M209.66,105.94l-22.28,2.3c-.61-.59-.97-1-1.59-1.98l21.45-4.08c.52-.1.94-.22,1.24-.43.3,0,1.08-.1,1.14.2l.03,3.99Z"></path><path class="cls-14" d="M193.81,72.05c-.02.16-.55-.02-.56-.16l-.46-4.26c-.18-1.7-1.74-2.91-3.32-3.09s-2.87-.28-4.48-.7c2.21-1.26,6.83.53,7.82-3.86.36-1.59-.1-3.08.83-4.78.39,1.74.51,3.24.73,4.88.53,4.02,5.32,2.75,7.73,3.65-1.37.69-2.5.61-3.84.73-1.9.17-3.69,1.46-3.94,3.47l-.51,4.13Z"></path><path class="cls-14" d="M133.51,64.52c-3.84,1.1-2.71,4.88-3.61,7.74-.94-1.64-.48-3.23-.87-4.9-.96-4.14-5.71-2.47-7.71-3.74,1.53-.45,2.8-.5,4.15-.61,4.47-.37,3.32-5.23,4.28-7.92.77,1.75.55,3.4.9,5.11.77,3.68,5.04,2.56,7.64,3.36-1.62,1.05-3.17.49-4.79.96Z"></path><path class="cls-10" d="M194.8,119.43l-.06-.41.32.09c.1.03.05.3.05.43,0,.11-.23-.07-.31-.11Z"></path><path class="cls-13" d="M161.72,228.24v-12.28s85.61-36.96,85.61-36.96l7.53,8.71-4.51,2.04c-29.41,13.29-59.01,26.34-88.63,38.5Z"></path><path class="cls-14" d="M148.71,169.17l-.06,2.83h-9.17s-.22,1.22-.22,1.22l-5.81.12-.21,1.01c-3.82-1.38-38.13-16.78-38.7-16.51-.22.11,7.61-10.48,8.39-8.56,11.01,4.74,34.14,14.78,45.78,19.88Z"></path><path class="cls-14" d="M148.2,210.11l13.53,5.85v12.28s-35.6-15.43-35.6-15.43l.48-.75.03-7.28c6.32,1.91,12.47,3.6,18.93,4.74.94.17,1.87.27,2.63.6Z"></path><path class="cls-14" d="M118.81,176.99c-4.68,2.37-10,3.67-14.99,5.45l-22.32-9.92,7.42-8.77,29.9,13.24Z"></path><path class="cls-10" d="M210.85,186.25l-.24,4.28-31.35-30.03c0-.42-.04-.94-.03-1.35l.19-5.02,31.21,30.42.21,1.7Z"></path><path class="cls-14" d="M92.76,186.19c-2.37,1.53-5.32,1.96-8.16,3.23l2.17,5.83c-.55-.06-1.11-.24-1.72-.5l-15.9-7.01,7.42-8.76,15.49,6.72.7.49Z"></path><path class="cls-10" d="M184.28,197.89c-.18.34-.33.88-.36,1.37l-.11,1.88-13.78-35.54-.06-2.43.29-.57,13.57,34.05c.19.47.02,1.16.44,1.24Z"></path><path class="cls-14" d="M161.72,207.57l-6.64-2.65c.05-1.03-.31-2.21-.08-3.35l6.75.02-.04,5.98Z"></path><path class="cls-10" d="M231.31,175.52l-43.5-23.26c-.12-1.63-.12-3.14.02-4.86l43.5,22.67c.17,1.73.2,3.43-.02,5.45Z"></path><path class="cls-12" d="M169.97,163.17l.06,2.43c-1.86.1-3.67.11-5.78-.04,1.98-.95,3.78-1.78,5.72-2.39Z"></path><path class="cls-12" d="M179.23,159.15c-.02.4.02.93.03,1.35l-4.74.56c1.61-.73,3.1-1.41,4.71-1.9Z"></path><path class="cls-12" d="M191.12,110.52l-.23,1.88c-.77-.79-1.37-1.49-2.19-2.56l2.42.68Z"></path></g></g></g></svg>