<?xml version="1.0"?>
<svg xmlns="http://www.w3.org/2000/svg" xmlns:xlink="http://www.w3.org/1999/xlink" version="1.0" x="0" y="0" width="2400" height="742.1425276557055" viewBox="72.63335342407227 94.89169998168946 194.73329315185546 60.216607666015626" preserveAspectRatio="xMidYMid meet" color-interpolation-filters="sRGB">
  <g>
    <defs>
      <linearGradient id="92" x1="0%" y1="0%" x2="100%" y2="0%">
        <stop offset="0%" stop-color="#fa71cd"></stop>
        <stop offset="100%" stop-color="#9b59b6"></stop>
      </linearGradient>
      <linearGradient id="93" x1="0%" y1="0%" x2="100%" y2="0%">
        <stop offset="0%" stop-color="#f9d423"></stop>
        <stop offset="100%" stop-color="#f83600"></stop>
      </linearGradient>
      <linearGradient id="94" x1="0%" y1="0%" x2="100%" y2="0%">
        <stop offset="0%" stop-color="#0064d2"></stop>
        <stop offset="100%" stop-color="#1cb0f6"></stop>
      </linearGradient>
      <linearGradient id="95" x1="0%" y1="0%" x2="100%" y2="0%">
        <stop offset="0%" stop-color="#f00978"></stop>
        <stop offset="100%" stop-color="#3f51b1"></stop>
      </linearGradient>
      <linearGradient id="96" x1="0%" y1="0%" x2="100%" y2="0%">
        <stop offset="0%" stop-color="#7873f5"></stop>
        <stop offset="100%" stop-color="#ec77ab"></stop>
      </linearGradient>
      <linearGradient id="97" x1="0%" y1="0%" x2="100%" y2="0%">
        <stop offset="0%" stop-color="#f9d423"></stop>
        <stop offset="100%" stop-color="#e14fad"></stop>
      </linearGradient>
      <linearGradient id="98" x1="0%" y1="0%" x2="100%" y2="0%">
        <stop offset="0%" stop-color="#009efd"></stop>
        <stop offset="100%" stop-color="#2af598"></stop>
      </linearGradient>
      <linearGradient id="99" x1="0%" y1="0%" x2="100%" y2="0%">
        <stop offset="0%" stop-color="#ffcc00"></stop>
        <stop offset="100%" stop-color="#00b140"></stop>
      </linearGradient>
      <linearGradient id="100" x1="0%" y1="0%" x2="100%" y2="0%">
        <stop offset="0%" stop-color="#d51007"></stop>
        <stop offset="100%" stop-color="#ff8177"></stop>
      </linearGradient>
      <linearGradient id="102" x1="0%" y1="0%" x2="100%" y2="0%">
        <stop offset="0%" stop-color="#a2b6df"></stop>
        <stop offset="100%" stop-color="#0c3483"></stop>
      </linearGradient>
      <linearGradient id="103" x1="0%" y1="0%" x2="100%" y2="0%">
        <stop offset="0%" stop-color="#7ac5d8"></stop>
        <stop offset="100%" stop-color="#eea2a2"></stop>
      </linearGradient>
      <linearGradient id="104" x1="0%" y1="0%" x2="100%" y2="0%">
        <stop offset="0%" stop-color="#00ecbc"></stop>
        <stop offset="100%" stop-color="#007adf"></stop>
      </linearGradient>
      <linearGradient id="105" x1="0%" y1="0%" x2="100%" y2="0%">
        <stop offset="0%" stop-color="#b88746"></stop>
        <stop offset="100%" stop-color="#fdf5a6"></stop>
      </linearGradient>
    </defs>
    <g class="iconmbgsvg" transform="translate(74.5425033569336,96.80084609985352)">
      <g fill="#000000">
        <g mask="url(#03889bd5-d280-4681-a0c8-62e997050410)">
          <g>
            <rect fill="#000000" fill-opacity="0" stroke-width="2" x="0" y="0" width="56.40000000000001" height="56.398308050758494" class="image-rect"></rect>
            <svg x="0" y="0" width="56.40000000000001" height="56.398308050758494" class="image-svg-svg primary" style="overflow: visible;">
              <svg xmlns="http://www.w3.org/2000/svg" xmlns:xlink="http://www.w3.org/1999/xlink" version="1.1" id="图层_1" x="0px" y="0px" viewBox="0.14634323120117188 0.34535980224609375 99.65884399414062 99.65540313720703" xml:space="preserve"> <path fill="#FFCE00" d="M61.76,97.58c33.57,6.97,42.44-16.43,36.18-41.75c-3.42,10.02-10.23,18.91-18.72,26.1  C76.91,90.79,71.3,96.89,61.76,97.58L61.76,97.58z M95.74,48.54c-0.08-0.23-0.17-0.47-0.25-0.7c-4.12,5.95-9.47,11.28-15.53,15.84  c0.53,4.2,0.65,8.22,0.32,11.95C88.12,68.03,93.9,58.79,95.74,48.54L95.74,48.54z M93.69,43.36C84.04,21.21,63.88,1.19,39.71,2.72  c20.71,9.46,35.36,34.52,39.53,56.51C85.02,54.63,90.02,49.3,93.69,43.36L93.69,43.36z"></path> <path fill="#000000" d="M2.57,61.95c-6.98,33.62,16.5,42.47,41.86,36.16c-9.99-3.41-18.85-10.19-26.03-18.65  C9.45,77.18,3.27,71.57,2.57,61.95L2.57,61.95z M51.69,95.9l0.71-0.26c-5.94-4.12-11.26-9.46-15.82-15.51  c-4.18,0.54-8.2,0.66-11.92,0.35C32.26,88.3,41.48,94.06,51.69,95.9L51.69,95.9z M56.88,93.84C79,84.17,98.96,64.04,97.43,39.9  c-9.45,20.67-34.42,35.31-56.39,39.51C45.63,85.18,50.96,90.17,56.88,93.84L56.88,93.84z"></path> <path fill="#FFCE00" d="M38.2,2.76C4.7-4.2-4.21,19.1,1.97,44.35c3.46-9.98,10.28-18.84,18.78-26C23.07,9.53,28.67,3.46,38.2,2.76  L38.2,2.76z M4.14,51.6c0.1,0.27,0.2,0.55,0.3,0.82c4.13-5.94,9.49-11.25,15.55-15.8c-0.53-4.21-0.64-8.25-0.31-11.98  C11.84,32.21,6.04,41.41,4.14,51.6L4.14,51.6z M6.24,56.91c9.64,22.18,29.81,42.25,54.01,40.72C39.53,88.15,24.87,63.08,20.7,41.08  C14.92,45.66,9.92,50.98,6.24,56.91L6.24,56.91z"></path> <path fill="#DD0000" d="M97.39,38.39C104.35,4.89,81.05-4.01,55.8,2.17c9.98,3.46,18.84,10.28,25.99,18.78  C90.62,23.26,96.69,28.86,97.39,38.39L97.39,38.39z M48.55,4.34c-0.27,0.1-0.55,0.2-0.82,0.3c5.94,4.13,11.25,9.49,15.8,15.55  c4.21-0.53,8.25-0.64,11.98-0.31C67.94,12.04,58.74,6.24,48.55,4.34L48.55,4.34z M43.24,6.43C21.06,16.07,0.99,36.24,2.52,60.44  c9.47-20.72,34.54-35.38,56.54-39.54C54.48,15.12,49.17,10.11,43.24,6.43L43.24,6.43z"></path> <path fill="#FFCE00" d="M91.82,39.35C81.58,18.85,62.41,1.28,39.71,2.72c14.57,6.66,26.14,21.04,33.17,36.63H91.82L91.82,39.35z"></path> </svg>
            </svg>
          </g>
        </g>
        <g transform="translate(63.485002517700195,5.299488067626953)">
          <g fill-rule="" class="tp-name">
            <g transform="scale(1)">
              <g>
                <path d="M15.47 0.19Q13.96 0.19 11.92 0.05L11.92 0.05Q11.19 0 10.07-0.05 8.95-0.1 7.59-0.1L7.59-0.1 4.13-0.05Q3.21 0 1.56 0L1.56 0Q1.46 0 1.46-0.29 1.46-0.58 1.56-0.58L1.56-0.58Q3.21-0.58 3.96-0.83 4.72-1.07 5.01-1.78 5.3-2.48 5.3-3.94L5.3-3.94 5.3-26.46Q5.3-27.92 5.03-28.6 4.77-29.28 3.99-29.55 3.21-29.82 1.61-29.82L1.61-29.82Q1.51-29.82 1.51-30.11 1.51-30.4 1.61-30.4L1.61-30.4 4.18-30.35Q6.32-30.26 7.59-30.26L7.59-30.26Q9.49-30.26 11.53-30.4L11.53-30.4Q13.96-30.5 14.79-30.5L14.79-30.5Q19.75-30.5 23.59-28.55 27.43-26.61 29.55-23.25 31.67-19.89 31.67-15.71L31.67-15.71Q31.67-10.99 29.48-7.37 27.29-3.75 23.59-1.78 19.89 0.19 15.47 0.19L15.47 0.19ZM14.98-0.78Q18.34-0.78 20.94-2.38 23.54-3.99 25-7.13 26.46-10.26 26.46-14.64L26.46-14.64Q26.46-18.82 25.07-22.21 23.69-25.59 21.16-27.56 18.63-29.53 15.27-29.53L15.27-29.53Q13.18-29.53 12.09-29.28 10.99-29.04 10.46-28.38 9.92-27.73 9.92-26.36L9.92-26.36 9.92-4.48Q9.92-2.48 10.97-1.63 12.01-0.78 14.98-0.78L14.98-0.78ZM37.09 0Q36.95 0 36.95-0.29 36.95-0.58 37.09-0.58L37.09-0.58Q38.75-0.58 39.5-0.83 40.25-1.07 40.52-1.78 40.79-2.48 40.79-3.94L40.79-3.94 40.79-26.46Q40.79-27.92 40.52-28.6 40.25-29.28 39.48-29.55 38.7-29.82 37.09-29.82L37.09-29.82Q36.95-29.82 36.95-30.11 36.95-30.4 37.09-30.4L37.09-30.4 57.33-30.4Q57.81-30.4 57.81-29.96L57.81-29.96 57.91-23.64Q57.91-23.54 57.64-23.52 57.38-23.49 57.33-23.64L57.33-23.64Q56.16-29.14 50.61-29.14L50.61-29.14 48.62-29.14Q46.82-29.14 46.12-28.5 45.41-27.87 45.41-26.36L45.41-26.36 45.41-4.13Q45.41-2.53 46.02-1.9 46.63-1.26 48.18-1.26L48.18-1.26 50.57-1.26Q57.08-1.26 58.84-7.54L58.84-7.54Q58.84-7.64 59.08-7.64L59.08-7.64Q59.42-7.64 59.42-7.49L59.42-7.49Q58.93-3.79 58.93-0.73L58.93-0.73Q58.93-0.34 58.79-0.17 58.64 0 58.2 0L58.2 0 37.09 0ZM55.48-10.99Q55.48-15.18 50.03-15.18L50.03-15.18 43.22-15.18 43.22-16.44 50.08-16.44Q55.43-16.44 55.43-20.04L55.43-20.04Q55.43-20.19 55.7-20.19 55.97-20.19 55.97-20.04L55.97-20.04 55.92-15.81 55.97-13.52Q56.06-11.97 56.06-10.99L56.06-10.99Q56.06-10.9 55.77-10.9 55.48-10.9 55.48-10.99L55.48-10.99ZM72.87-29.38Q69.9-29.38 68.01-27.56 66.11-25.73 65.09-22.08L65.09-22.08Q65.09-21.94 64.82-21.96 64.55-21.99 64.55-22.08L64.55-22.08Q64.75-23.98 64.99-26.97 65.23-29.96 65.23-31.47L65.23-31.47Q65.23-31.71 65.5-31.71 65.77-31.71 65.77-31.47L65.77-31.47Q65.77-30.4 68.49-30.4L68.49-30.4Q72.68-30.26 78.27-30.26L78.27-30.26Q81.14-30.26 84.35-30.35L84.35-30.35 87.66-30.4Q89.51-30.4 90.36-30.64 91.21-30.89 91.45-31.62L91.45-31.62Q91.5-31.81 91.74-31.81 91.99-31.81 91.99-31.62L91.99-31.62Q91.84-30.11 91.7-27.04 91.55-23.98 91.55-22.08L91.55-22.08Q91.55-21.99 91.28-21.99 91.01-21.99 90.97-22.08L90.97-22.08Q90.48-25.83 88.68-27.6 86.88-29.38 83.82-29.38L83.82-29.38Q82.45-29.38 81.8-29.14 81.14-28.89 80.9-28.29 80.65-27.68 80.65-26.36L80.65-26.36 80.65-3.94Q80.65-2.48 80.97-1.78 81.29-1.07 82.16-0.83 83.04-0.58 84.93-0.58L84.93-0.58Q85.08-0.58 85.08-0.29 85.08 0 84.93 0L84.93 0Q83.23 0 82.26-0.05L82.26-0.05 78.27-0.1 74.48-0.05Q73.46 0 71.66 0L71.66 0Q71.56 0 71.56-0.29 71.56-0.58 71.66-0.58L71.66-0.58Q73.55-0.58 74.45-0.83 75.35-1.07 75.67-1.78 75.98-2.48 75.98-3.94L75.98-3.94 75.98-26.46Q75.98-27.73 75.74-28.33 75.5-28.94 74.87-29.16 74.23-29.38 72.87-29.38L72.87-29.38ZM120.96 0Q119.79 0 116.65-4.23 113.51-8.46 109.04-16L109.04-16 112.93-17.22Q117.02-10.9 119.77-7.34 122.51-3.79 124.65-2.19 126.79-0.58 128.79-0.58L128.79-0.58Q128.89-0.58 128.89-0.29 128.89 0 128.79 0L128.79 0 120.96 0ZM109.14-30.55Q113.47-30.55 115.8-28.94 118.14-27.34 118.14-24.42L118.14-24.42Q118.14-22.03 116.65-19.92 115.17-17.8 112.76-16.54 110.35-15.27 107.73-15.27L107.73-15.27Q105.98-15.27 105.25-15.32L105.25-15.32 105.25-3.94Q105.25-2.43 105.49-1.75 105.73-1.07 106.49-0.83 107.24-0.58 108.94-0.58L108.94-0.58Q109.04-0.58 109.04-0.29 109.04 0 108.94 0L108.94 0Q107.34 0 106.41-0.05L106.41-0.05 102.86-0.1 99.36-0.05Q98.44 0 96.83 0L96.83 0Q96.68 0 96.68-0.29 96.68-0.58 96.83-0.58L96.83-0.58Q98.48-0.58 99.24-0.83 99.99-1.07 100.28-1.78 100.58-2.48 100.58-3.94L100.58-3.94 100.58-26.46Q100.58-27.92 100.31-28.6 100.04-29.28 99.26-29.55 98.48-29.82 96.88-29.82L96.88-29.82Q96.78-29.82 96.78-30.11 96.78-30.4 96.88-30.4L96.88-30.4 99.41-30.35Q101.55-30.26 102.86-30.26L102.86-30.26Q104.32-30.26 105.93-30.4L105.93-30.4Q106.51-30.45 107.34-30.5 108.16-30.55 109.14-30.55L109.14-30.55ZM113.32-22.62Q113.32-26.51 112.01-28.07 110.69-29.62 108.31-29.62L108.31-29.62Q106.56-29.62 105.9-28.94 105.25-28.26 105.25-26.36L105.25-26.36 105.25-16.68Q106.41-16.49 108.07-16.49L108.07-16.49Q110.94-16.49 112.13-17.83 113.32-19.16 113.32-22.62L113.32-22.62Z" transform="translate(-1.4600000381469727, 31.809999465942383)"></path>
              </g>
              <g fill="#000000" transform="translate(0,35)">
                <g transform="scale(0.96043)">
                  <path d="M8.31-12.61Q9.2-12.61 10.16-12.45 11.12-12.29 11.68-12.01L11.68-12.01Q11.85-11.93 11.9-11.85 11.95-11.77 11.97-11.56L11.97-11.56 12.21-8.98Q12.21-8.92 12.11-8.91 12.01-8.9 11.99-8.96L11.99-8.96Q11.42-10.51 10.26-11.32 9.1-12.13 7.53-12.13L7.53-12.13Q5.45-12.13 4.28-10.68 3.11-9.24 3.11-6.8L3.11-6.8Q3.11-4.98 3.77-3.45 4.42-1.92 5.56-1.03 6.7-0.14 8.11-0.14L8.11-0.14Q10.78-0.14 12.17-3.47L12.17-3.47Q12.21-3.53 12.27-3.53L12.27-3.53Q12.31-3.53 12.36-3.5 12.41-3.47 12.41-3.45L12.41-3.45 12.11-0.91Q12.07-0.67 12.02-0.6 11.97-0.54 11.79-0.46L11.79-0.46Q10.07 0.24 8.13 0.24L8.13 0.24Q5.71 0.24 4.1-0.72 2.5-1.68 1.73-3.17 0.97-4.66 0.97-6.26L0.97-6.26Q0.97-8.13 1.99-9.57 3.01-11.02 4.7-11.81 6.38-12.61 8.31-12.61L8.31-12.61ZM21.52 0.24Q19.67 0.24 18.24-0.62 16.8-1.49 16.02-2.96 15.23-4.44 15.23-6.18L15.23-6.18Q15.23-8.23 16.26-9.68 17.29-11.14 18.91-11.87 20.53-12.61 22.21-12.61L22.21-12.61Q24.09-12.61 25.52-11.73 26.95-10.84 27.71-9.4 28.47-7.95 28.47-6.32L28.47-6.32Q28.47-4.52 27.52-3.01 26.57-1.51 24.98-0.63 23.38 0.24 21.52 0.24L21.52 0.24ZM22.19-0.24Q23.38-0.24 24.32-0.88 25.26-1.53 25.81-2.78 26.35-4.02 26.35-5.75L26.35-5.75Q26.35-7.59 25.75-9.03 25.14-10.47 24.02-11.28 22.9-12.09 21.4-12.09L21.4-12.09Q19.46-12.09 18.4-10.71 17.35-9.34 17.35-6.9L17.35-6.9Q17.35-5 17.97-3.48 18.58-1.96 19.69-1.1 20.8-0.24 22.19-0.24L22.19-0.24ZM32.92-2.4L32.92-11.93 33.46-11.89 33.46-2.4Q33.46-1.35 33.87-0.79 34.27-0.24 35.06-0.24L35.06-0.24Q35.12-0.24 35.12-0.12 35.12 0 35.06 0L35.06 0Q34.55 0 34.27-0.02L34.27-0.02 33.22-0.04 32.05-0.02Q31.73 0 31.14 0L31.14 0Q31.08 0 31.08-0.12 31.08-0.24 31.14-0.24L31.14-0.24Q31.99-0.24 32.46-0.79 32.92-1.35 32.92-2.4L32.92-2.4ZM42.99 0.28Q42.99 0.34 42.9 0.36 42.8 0.38 42.76 0.34L42.76 0.34 33.22-10.76Q32.55-11.54 32.03-11.84 31.52-12.15 31.02-12.15L31.02-12.15Q30.96-12.15 30.96-12.27 30.96-12.39 31.02-12.39L31.02-12.39 31.81-12.37Q32.05-12.35 32.53-12.35L32.53-12.35 33.8-12.37Q34.03-12.39 34.35-12.39L34.35-12.39Q34.51-12.39 34.59-12.31 34.67-12.23 34.83-11.99L34.83-11.99Q35.16-11.54 35.32-11.36L35.32-11.36 42.84-2.52 42.99 0.28ZM42.99-9.97L42.99 0.28 42.46-0.32 42.46-9.97Q42.46-11.02 42.05-11.59 41.65-12.15 40.85-12.15L40.85-12.15Q40.81-12.15 40.81-12.27 40.81-12.39 40.85-12.39L40.85-12.39 41.67-12.37Q42.3-12.33 42.72-12.33L42.72-12.33Q43.09-12.33 43.81-12.37L43.81-12.37 44.64-12.39Q44.7-12.39 44.7-12.27 44.7-12.15 44.64-12.15L44.64-12.15Q43.85-12.15 43.42-11.59 42.99-11.02 42.99-9.97L42.99-9.97ZM49.21-10.29Q49.21-9.55 49.57-8.99 49.94-8.42 50.48-8.02 51.01-7.61 51.94-7.02L51.94-7.02Q52.95-6.38 53.54-5.93 54.12-5.47 54.54-4.81 54.96-4.14 54.96-3.25L54.96-3.25Q54.96-2.24 54.43-1.45 53.91-0.65 52.94-0.21 51.98 0.24 50.75 0.24L50.75 0.24Q49.92 0.24 49.04 0.02 48.16-0.2 47.7-0.52L47.7-0.52Q47.52-0.63 47.5-0.89L47.5-0.89 47.38-3.89 47.38-3.91Q47.38-3.98 47.48-3.99 47.58-4 47.6-3.92L47.6-3.92Q48.26-2.3 49.1-1.25 49.94-0.2 51.23-0.2L51.23-0.2Q52.1-0.2 52.68-0.66 53.25-1.13 53.25-2.22L53.25-2.22Q53.25-3.09 52.87-3.75 52.48-4.4 51.91-4.84 51.35-5.27 50.38-5.91L50.38-5.91Q49.43-6.52 48.89-6.95 48.36-7.37 47.98-8 47.6-8.62 47.6-9.46L47.6-9.46Q47.6-10.49 48.18-11.2 48.75-11.91 49.67-12.26 50.6-12.61 51.61-12.61L51.61-12.61Q52.26-12.61 52.93-12.48 53.61-12.35 54.08-12.15L54.08-12.15Q54.38-12.03 54.38-11.77L54.38-11.77 54.42-9.1Q54.42-9.02 54.33-9 54.24-8.98 54.2-9.04L54.2-9.04Q53.81-10.25 53.14-11.23 52.48-12.21 51.15-12.21L51.15-12.21Q50.26-12.21 49.73-11.69 49.21-11.16 49.21-10.29L49.21-10.29ZM68.33-9.97Q68.33-11 67.86-11.58 67.39-12.15 66.52-12.15L66.52-12.15Q66.48-12.15 66.48-12.27 66.48-12.39 66.52-12.39L66.52-12.39 67.43-12.37Q68.19-12.33 68.62-12.33L68.62-12.33Q68.98-12.33 69.69-12.37L69.69-12.37 70.57-12.39Q70.61-12.39 70.61-12.27 70.61-12.15 70.57-12.15L70.57-12.15Q69.79-12.15 69.37-11.58 68.94-11 68.94-9.97L68.94-9.97 68.94-4.42Q68.94-2.99 68.34-1.93 67.73-0.87 66.63-0.3 65.53 0.28 64.08 0.28L64.08 0.28Q62.64 0.28 61.51-0.29 60.38-0.85 59.75-1.91 59.13-2.97 59.13-4.4L59.13-4.4 59.13-10.78Q59.13-11.38 59.01-11.66 58.89-11.93 58.58-12.04 58.28-12.15 57.62-12.15L57.62-12.15Q57.56-12.15 57.56-12.27 57.56-12.39 57.62-12.39L57.62-12.39 58.65-12.37Q59.52-12.33 60.06-12.33L60.06-12.33Q60.65-12.33 61.53-12.37L61.53-12.37 62.52-12.39Q62.58-12.39 62.58-12.27 62.58-12.15 62.52-12.15L62.52-12.15Q61.86-12.15 61.55-12.03 61.23-11.91 61.12-11.63 61.01-11.34 61.01-10.74L61.01-10.74 61.01-5.09Q61.01-2.74 61.99-1.58 62.97-0.42 64.74-0.42L64.74-0.42Q66.42-0.42 67.37-1.46 68.33-2.5 68.33-4.4L68.33-4.4 68.33-9.97ZM75.93-1.68Q75.93-1.17 76.03-0.92 76.13-0.67 76.38-0.59 76.64-0.52 77.22-0.52L77.22-0.52 78.41-0.52Q79.81-0.52 80.78-1.3 81.76-2.08 82.07-3.41L82.07-3.41Q82.07-3.45 82.15-3.45L82.15-3.45Q82.19-3.45 82.24-3.42 82.29-3.39 82.29-3.37L82.29-3.37Q82.11-1.55 82.11-0.3L82.11-0.3Q82.11-0.14 82.05-0.07 81.99 0 81.81 0L81.81 0 72.54 0Q72.5 0 72.5-0.12 72.5-0.24 72.54-0.24L72.54-0.24Q73.21-0.24 73.52-0.34 73.83-0.44 73.93-0.72 74.04-1.01 74.04-1.61L74.04-1.61 74.04-10.78Q74.04-11.38 73.93-11.66 73.83-11.93 73.51-12.04 73.19-12.15 72.54-12.15L72.54-12.15Q72.5-12.15 72.5-12.27 72.5-12.39 72.54-12.39L72.54-12.39 73.55-12.37Q74.42-12.33 74.98-12.33L74.98-12.33Q75.57-12.33 76.44-12.37L76.44-12.37 77.43-12.39Q77.49-12.39 77.49-12.27 77.49-12.15 77.43-12.15L77.43-12.15Q76.78-12.15 76.46-12.04 76.15-11.93 76.04-11.65 75.93-11.36 75.93-10.76L75.93-10.76 75.93-1.68ZM87.33-11.97Q86.13-11.97 85.35-11.23 84.58-10.49 84.16-9L84.16-9Q84.16-8.94 84.05-8.95 83.94-8.96 83.94-9L83.94-9Q84.02-9.77 84.12-10.99 84.22-12.21 84.22-12.83L84.22-12.83Q84.22-12.92 84.33-12.92 84.44-12.92 84.44-12.83L84.44-12.83Q84.44-12.39 85.55-12.39L85.55-12.39Q87.25-12.33 89.53-12.33L89.53-12.33Q90.7-12.33 92.01-12.37L92.01-12.37 93.36-12.39Q94.11-12.39 94.46-12.49 94.81-12.59 94.91-12.89L94.91-12.89Q94.93-12.96 95.03-12.96 95.12-12.96 95.12-12.89L95.12-12.89Q95.07-12.27 95.01-11.02 94.95-9.77 94.95-9L94.95-9Q94.95-8.96 94.84-8.96 94.73-8.96 94.71-9L94.71-9Q94.51-10.53 93.78-11.25 93.04-11.97 91.79-11.97L91.79-11.97Q91.24-11.97 90.97-11.87 90.7-11.77 90.61-11.53 90.51-11.28 90.51-10.74L90.51-10.74 90.51-1.61Q90.51-1.01 90.63-0.72 90.76-0.44 91.12-0.34 91.48-0.24 92.25-0.24L92.25-0.24Q92.31-0.24 92.31-0.12 92.31 0 92.25 0L92.25 0Q91.56 0 91.16-0.02L91.16-0.02 89.53-0.04 87.99-0.02Q87.57 0 86.84 0L86.84 0Q86.8 0 86.8-0.12 86.8-0.24 86.84-0.24L86.84-0.24Q87.61-0.24 87.98-0.34 88.35-0.44 88.47-0.72 88.6-1.01 88.6-1.61L88.6-1.61 88.6-10.78Q88.6-11.3 88.5-11.55 88.4-11.79 88.15-11.88 87.89-11.97 87.33-11.97L87.33-11.97ZM101.16-1.61Q101.16-0.99 101.27-0.71 101.38-0.44 101.69-0.34 101.99-0.24 102.67-0.24L102.67-0.24Q102.73-0.24 102.73-0.12 102.73 0 102.67 0L102.67 0Q102.03 0 101.66-0.02L101.66-0.02 100.19-0.04 98.76-0.02Q98.38 0 97.73 0L97.73 0Q97.67 0 97.67-0.12 97.67-0.24 97.73-0.24L97.73-0.24Q98.4-0.24 98.71-0.34 99.02-0.44 99.14-0.72 99.26-1.01 99.26-1.61L99.26-1.61 99.26-10.78Q99.26-11.38 99.14-11.66 99.02-11.93 98.71-12.04 98.4-12.15 97.73-12.15L97.73-12.15Q97.67-12.15 97.67-12.27 97.67-12.39 97.73-12.39L97.73-12.39 98.76-12.37Q99.63-12.33 100.19-12.33L100.19-12.33Q100.8-12.33 101.68-12.37L101.68-12.37 102.67-12.39Q102.73-12.39 102.73-12.27 102.73-12.15 102.67-12.15L102.67-12.15Q102.01-12.15 101.7-12.03 101.38-11.91 101.27-11.63 101.16-11.34 101.16-10.74L101.16-10.74 101.16-1.61ZM107.06-2.4L107.06-11.93 107.59-11.89 107.59-2.4Q107.59-1.35 108-0.79 108.4-0.24 109.2-0.24L109.2-0.24Q109.26-0.24 109.26-0.12 109.26 0 109.2 0L109.2 0Q108.68 0 108.4-0.02L108.4-0.02 107.35-0.04 106.18-0.02Q105.87 0 105.27 0L105.27 0Q105.21 0 105.21-0.12 105.21-0.24 105.27-0.24L105.27-0.24Q106.12-0.24 106.59-0.79 107.06-1.35 107.06-2.4L107.06-2.4ZM117.13 0.28Q117.13 0.34 117.03 0.36 116.93 0.38 116.89 0.34L116.89 0.34 107.35-10.76Q106.68-11.54 106.16-11.84 105.65-12.15 105.15-12.15L105.15-12.15Q105.09-12.15 105.09-12.27 105.09-12.39 105.15-12.39L105.15-12.39 105.95-12.37Q106.18-12.35 106.66-12.35L106.66-12.35 107.93-12.37Q108.17-12.39 108.48-12.39L108.48-12.39Q108.64-12.39 108.72-12.31 108.8-12.23 108.96-11.99L108.96-11.99Q109.3-11.54 109.45-11.36L109.45-11.36 116.97-2.52 117.13 0.28ZM117.13-9.97L117.13 0.28 116.59-0.32 116.59-9.97Q116.59-11.02 116.18-11.59 115.78-12.15 114.99-12.15L114.99-12.15Q114.95-12.15 114.95-12.27 114.95-12.39 114.99-12.39L114.99-12.39 115.8-12.37Q116.43-12.33 116.85-12.33L116.85-12.33Q117.23-12.33 117.94-12.37L117.94-12.37 118.77-12.39Q118.83-12.39 118.83-12.27 118.83-12.15 118.77-12.15L118.77-12.15Q117.98-12.15 117.55-11.59 117.13-11.02 117.13-9.97L117.13-9.97ZM128.18 0.24Q126 0.24 124.38-0.59 122.76-1.43 121.91-2.86 121.06-4.3 121.06-6.07L121.06-6.07Q121.06-7.97 122.04-9.47 123.02-10.96 124.74-11.78 126.45-12.61 128.59-12.61L128.59-12.61Q129.52-12.61 130.46-12.45 131.39-12.29 131.96-12.01L131.96-12.01Q132.12-11.93 132.17-11.85 132.22-11.77 132.24-11.56L132.24-11.56 132.48-8.98Q132.48-8.92 132.38-8.91 132.28-8.9 132.24-8.96L132.24-8.96Q131.65-10.45 130.46-11.28 129.27-12.11 127.66-12.11L127.66-12.11Q125.48-12.11 124.31-10.69 123.14-9.28 123.14-6.8L123.14-6.8Q123.14-4.86 123.86-3.33 124.57-1.8 125.83-0.95 127.09-0.1 128.65-0.1L128.65-0.1Q129.52-0.1 130-0.28 130.48-0.46 130.7-0.97 130.93-1.49 130.93-2.5L130.93-2.5Q130.93-3.53 130.81-3.93 130.69-4.34 130.29-4.48 129.88-4.62 128.87-4.62L128.87-4.62Q128.75-4.62 128.75-4.78L128.75-4.78Q128.75-4.84 128.78-4.89 128.81-4.94 128.85-4.94L128.85-4.94Q130.5-4.84 131.49-4.84L131.49-4.84Q132.48-4.84 133.55-4.9L133.55-4.9Q133.59-4.9 133.62-4.85 133.65-4.8 133.65-4.76L133.65-4.76Q133.65-4.62 133.55-4.62L133.55-4.62Q133.15-4.64 132.98-4.49 132.82-4.34 132.78-3.9 132.74-3.45 132.74-2.3L132.74-2.3Q132.74-1.41 132.81-1.03 132.87-0.65 132.87-0.56L132.87-0.56Q132.87-0.44 132.84-0.41 132.8-0.38 132.64-0.32L132.64-0.32Q130.14 0.24 128.18 0.24L128.18 0.24Z" transform="translate(-0.9700000286102295, 12.960000038146973)"></path>
                </g>
              </g>
            </g>
          </g>
        </g>
      </g>
    </g>
    <mask id="03889bd5-d280-4681-a0c8-62e997050410">
      <g fill="white">
        <g>
          <rect fill-opacity="1" stroke-width="2" x="0" y="0" width="56.40000000000001" height="56.398308050758494" class="image-rect"></rect>
          <svg x="0" y="0" width="56.40000000000001" height="56.398308050758494" class="image-svg-svg primary" style="overflow: visible;">
            <svg xmlns="http://www.w3.org/2000/svg" xmlns:xlink="http://www.w3.org/1999/xlink" version="1.1" id="图层_1" x="0px" y="0px" viewBox="0.14634323120117188 0.34535980224609375 99.65884399414062 99.65540313720703" xml:space="preserve"> <path d="M61.76,97.58c33.57,6.97,42.44-16.43,36.18-41.75c-3.42,10.02-10.23,18.91-18.72,26.1  C76.91,90.79,71.3,96.89,61.76,97.58L61.76,97.58z M95.74,48.54c-0.08-0.23-0.17-0.47-0.25-0.7c-4.12,5.95-9.47,11.28-15.53,15.84  c0.53,4.2,0.65,8.22,0.32,11.95C88.12,68.03,93.9,58.79,95.74,48.54L95.74,48.54z M93.69,43.36C84.04,21.21,63.88,1.19,39.71,2.72  c20.71,9.46,35.36,34.52,39.53,56.51C85.02,54.63,90.02,49.3,93.69,43.36L93.69,43.36z"></path> <path d="M2.57,61.95c-6.98,33.62,16.5,42.47,41.86,36.16c-9.99-3.41-18.85-10.19-26.03-18.65  C9.45,77.18,3.27,71.57,2.57,61.95L2.57,61.95z M51.69,95.9l0.71-0.26c-5.94-4.12-11.26-9.46-15.82-15.51  c-4.18,0.54-8.2,0.66-11.92,0.35C32.26,88.3,41.48,94.06,51.69,95.9L51.69,95.9z M56.88,93.84C79,84.17,98.96,64.04,97.43,39.9  c-9.45,20.67-34.42,35.31-56.39,39.51C45.63,85.18,50.96,90.17,56.88,93.84L56.88,93.84z"></path> <path d="M38.2,2.76C4.7-4.2-4.21,19.1,1.97,44.35c3.46-9.98,10.28-18.84,18.78-26C23.07,9.53,28.67,3.46,38.2,2.76  L38.2,2.76z M4.14,51.6c0.1,0.27,0.2,0.55,0.3,0.82c4.13-5.94,9.49-11.25,15.55-15.8c-0.53-4.21-0.64-8.25-0.31-11.98  C11.84,32.21,6.04,41.41,4.14,51.6L4.14,51.6z M6.24,56.91c9.64,22.18,29.81,42.25,54.01,40.72C39.53,88.15,24.87,63.08,20.7,41.08  C14.92,45.66,9.92,50.98,6.24,56.91L6.24,56.91z"></path> <path d="M97.39,38.39C104.35,4.89,81.05-4.01,55.8,2.17c9.98,3.46,18.84,10.28,25.99,18.78  C90.62,23.26,96.69,28.86,97.39,38.39L97.39,38.39z M48.55,4.34c-0.27,0.1-0.55,0.2-0.82,0.3c5.94,4.13,11.25,9.49,15.8,15.55  c4.21-0.53,8.25-0.64,11.98-0.31C67.94,12.04,58.74,6.24,48.55,4.34L48.55,4.34z M43.24,6.43C21.06,16.07,0.99,36.24,2.52,60.44  c9.47-20.72,34.54-35.38,56.54-39.54C54.48,15.12,49.17,10.11,43.24,6.43L43.24,6.43z"></path> <path d="M91.82,39.35C81.58,18.85,62.41,1.28,39.71,2.72c14.57,6.66,26.14,21.04,33.17,36.63H91.82L91.82,39.35z"></path> </svg>
          </svg>
        </g>
      </g>
      <g transform="translate(63.485002517700195,5.299488067626953)">
        <rect fill="black" fill-opacity="1" x="-3.5" y="-3.5" width="134.43000030517578" height="54.79933166503906"></rect>
        <rect fill="black" fill-opacity="1" x="-3.5" y="-3.5"></rect>
      </g>
      <g transform="translate(63.485002517700195,5.299488067626953)" fill="black">
        <g fill-rule="" class="tp-name">
          <g transform="scale(1)">
            <g>
              <path d="M15.47 0.19Q13.96 0.19 11.92 0.05L11.92 0.05Q11.19 0 10.07-0.05 8.95-0.1 7.59-0.1L7.59-0.1 4.13-0.05Q3.21 0 1.56 0L1.56 0Q1.46 0 1.46-0.29 1.46-0.58 1.56-0.58L1.56-0.58Q3.21-0.58 3.96-0.83 4.72-1.07 5.01-1.78 5.3-2.48 5.3-3.94L5.3-3.94 5.3-26.46Q5.3-27.92 5.03-28.6 4.77-29.28 3.99-29.55 3.21-29.82 1.61-29.82L1.61-29.82Q1.51-29.82 1.51-30.11 1.51-30.4 1.61-30.4L1.61-30.4 4.18-30.35Q6.32-30.26 7.59-30.26L7.59-30.26Q9.49-30.26 11.53-30.4L11.53-30.4Q13.96-30.5 14.79-30.5L14.79-30.5Q19.75-30.5 23.59-28.55 27.43-26.61 29.55-23.25 31.67-19.89 31.67-15.71L31.67-15.71Q31.67-10.99 29.48-7.37 27.29-3.75 23.59-1.78 19.89 0.19 15.47 0.19L15.47 0.19ZM14.98-0.78Q18.34-0.78 20.94-2.38 23.54-3.99 25-7.13 26.46-10.26 26.46-14.64L26.46-14.64Q26.46-18.82 25.07-22.21 23.69-25.59 21.16-27.56 18.63-29.53 15.27-29.53L15.27-29.53Q13.18-29.53 12.09-29.28 10.99-29.04 10.46-28.38 9.92-27.73 9.92-26.36L9.92-26.36 9.92-4.48Q9.92-2.48 10.97-1.63 12.01-0.78 14.98-0.78L14.98-0.78ZM37.09 0Q36.95 0 36.95-0.29 36.95-0.58 37.09-0.58L37.09-0.58Q38.75-0.58 39.5-0.83 40.25-1.07 40.52-1.78 40.79-2.48 40.79-3.94L40.79-3.94 40.79-26.46Q40.79-27.92 40.52-28.6 40.25-29.28 39.48-29.55 38.7-29.82 37.09-29.82L37.09-29.82Q36.95-29.82 36.95-30.11 36.95-30.4 37.09-30.4L37.09-30.4 57.33-30.4Q57.81-30.4 57.81-29.96L57.81-29.96 57.91-23.64Q57.91-23.54 57.64-23.52 57.38-23.49 57.33-23.64L57.33-23.64Q56.16-29.14 50.61-29.14L50.61-29.14 48.62-29.14Q46.82-29.14 46.12-28.5 45.41-27.87 45.41-26.36L45.41-26.36 45.41-4.13Q45.41-2.53 46.02-1.9 46.63-1.26 48.18-1.26L48.18-1.26 50.57-1.26Q57.08-1.26 58.84-7.54L58.84-7.54Q58.84-7.64 59.08-7.64L59.08-7.64Q59.42-7.64 59.42-7.49L59.42-7.49Q58.93-3.79 58.93-0.73L58.93-0.73Q58.93-0.34 58.79-0.17 58.64 0 58.2 0L58.2 0 37.09 0ZM55.48-10.99Q55.48-15.18 50.03-15.18L50.03-15.18 43.22-15.18 43.22-16.44 50.08-16.44Q55.43-16.44 55.43-20.04L55.43-20.04Q55.43-20.19 55.7-20.19 55.97-20.19 55.97-20.04L55.97-20.04 55.92-15.81 55.97-13.52Q56.06-11.97 56.06-10.99L56.06-10.99Q56.06-10.9 55.77-10.9 55.48-10.9 55.48-10.99L55.48-10.99ZM72.87-29.38Q69.9-29.38 68.01-27.56 66.11-25.73 65.09-22.08L65.09-22.08Q65.09-21.94 64.82-21.96 64.55-21.99 64.55-22.08L64.55-22.08Q64.75-23.98 64.99-26.97 65.23-29.96 65.23-31.47L65.23-31.47Q65.23-31.71 65.5-31.71 65.77-31.71 65.77-31.47L65.77-31.47Q65.77-30.4 68.49-30.4L68.49-30.4Q72.68-30.26 78.27-30.26L78.27-30.26Q81.14-30.26 84.35-30.35L84.35-30.35 87.66-30.4Q89.51-30.4 90.36-30.64 91.21-30.89 91.45-31.62L91.45-31.62Q91.5-31.81 91.74-31.81 91.99-31.81 91.99-31.62L91.99-31.62Q91.84-30.11 91.7-27.04 91.55-23.98 91.55-22.08L91.55-22.08Q91.55-21.99 91.28-21.99 91.01-21.99 90.97-22.08L90.97-22.08Q90.48-25.83 88.68-27.6 86.88-29.38 83.82-29.38L83.82-29.38Q82.45-29.38 81.8-29.14 81.14-28.89 80.9-28.29 80.65-27.68 80.65-26.36L80.65-26.36 80.65-3.94Q80.65-2.48 80.97-1.78 81.29-1.07 82.16-0.83 83.04-0.58 84.93-0.58L84.93-0.58Q85.08-0.58 85.08-0.29 85.08 0 84.93 0L84.93 0Q83.23 0 82.26-0.05L82.26-0.05 78.27-0.1 74.48-0.05Q73.46 0 71.66 0L71.66 0Q71.56 0 71.56-0.29 71.56-0.58 71.66-0.58L71.66-0.58Q73.55-0.58 74.45-0.83 75.35-1.07 75.67-1.78 75.98-2.48 75.98-3.94L75.98-3.94 75.98-26.46Q75.98-27.73 75.74-28.33 75.5-28.94 74.87-29.16 74.23-29.38 72.87-29.38L72.87-29.38ZM120.96 0Q119.79 0 116.65-4.23 113.51-8.46 109.04-16L109.04-16 112.93-17.22Q117.02-10.9 119.77-7.34 122.51-3.79 124.65-2.19 126.79-0.58 128.79-0.58L128.79-0.58Q128.89-0.58 128.89-0.29 128.89 0 128.79 0L128.79 0 120.96 0ZM109.14-30.55Q113.47-30.55 115.8-28.94 118.14-27.34 118.14-24.42L118.14-24.42Q118.14-22.03 116.65-19.92 115.17-17.8 112.76-16.54 110.35-15.27 107.73-15.27L107.73-15.27Q105.98-15.27 105.25-15.32L105.25-15.32 105.25-3.94Q105.25-2.43 105.49-1.75 105.73-1.07 106.49-0.83 107.24-0.58 108.94-0.58L108.94-0.58Q109.04-0.58 109.04-0.29 109.04 0 108.94 0L108.94 0Q107.34 0 106.41-0.05L106.41-0.05 102.86-0.1 99.36-0.05Q98.44 0 96.83 0L96.83 0Q96.68 0 96.68-0.29 96.68-0.58 96.83-0.58L96.83-0.58Q98.48-0.58 99.24-0.83 99.99-1.07 100.28-1.78 100.58-2.48 100.58-3.94L100.58-3.94 100.58-26.46Q100.58-27.92 100.31-28.6 100.04-29.28 99.26-29.55 98.48-29.82 96.88-29.82L96.88-29.82Q96.78-29.82 96.78-30.11 96.78-30.4 96.88-30.4L96.88-30.4 99.41-30.35Q101.55-30.26 102.86-30.26L102.86-30.26Q104.32-30.26 105.93-30.4L105.93-30.4Q106.51-30.45 107.34-30.5 108.16-30.55 109.14-30.55L109.14-30.55ZM113.32-22.62Q113.32-26.51 112.01-28.07 110.69-29.62 108.31-29.62L108.31-29.62Q106.56-29.62 105.9-28.94 105.25-28.26 105.25-26.36L105.25-26.36 105.25-16.68Q106.41-16.49 108.07-16.49L108.07-16.49Q110.94-16.49 112.13-17.83 113.32-19.16 113.32-22.62L113.32-22.62Z" transform="translate(-1.4600000381469727, 31.809999465942383)"></path>
            </g>
            <g transform="translate(0,35)">
              <g transform="scale(0.96043)">
                <path d="M8.31-12.61Q9.2-12.61 10.16-12.45 11.12-12.29 11.68-12.01L11.68-12.01Q11.85-11.93 11.9-11.85 11.95-11.77 11.97-11.56L11.97-11.56 12.21-8.98Q12.21-8.92 12.11-8.91 12.01-8.9 11.99-8.96L11.99-8.96Q11.42-10.51 10.26-11.32 9.1-12.13 7.53-12.13L7.53-12.13Q5.45-12.13 4.28-10.68 3.11-9.24 3.11-6.8L3.11-6.8Q3.11-4.98 3.77-3.45 4.42-1.92 5.56-1.03 6.7-0.14 8.11-0.14L8.11-0.14Q10.78-0.14 12.17-3.47L12.17-3.47Q12.21-3.53 12.27-3.53L12.27-3.53Q12.31-3.53 12.36-3.5 12.41-3.47 12.41-3.45L12.41-3.45 12.11-0.91Q12.07-0.67 12.02-0.6 11.97-0.54 11.79-0.46L11.79-0.46Q10.07 0.24 8.13 0.24L8.13 0.24Q5.71 0.24 4.1-0.72 2.5-1.68 1.73-3.17 0.97-4.66 0.97-6.26L0.97-6.26Q0.97-8.13 1.99-9.57 3.01-11.02 4.7-11.81 6.38-12.61 8.31-12.61L8.31-12.61ZM21.52 0.24Q19.67 0.24 18.24-0.62 16.8-1.49 16.02-2.96 15.23-4.44 15.23-6.18L15.23-6.18Q15.23-8.23 16.26-9.68 17.29-11.14 18.91-11.87 20.53-12.61 22.21-12.61L22.21-12.61Q24.09-12.61 25.52-11.73 26.95-10.84 27.71-9.4 28.47-7.95 28.47-6.32L28.47-6.32Q28.47-4.52 27.52-3.01 26.57-1.51 24.98-0.63 23.38 0.24 21.52 0.24L21.52 0.24ZM22.19-0.24Q23.38-0.24 24.32-0.88 25.26-1.53 25.81-2.78 26.35-4.02 26.35-5.75L26.35-5.75Q26.35-7.59 25.75-9.03 25.14-10.47 24.02-11.28 22.9-12.09 21.4-12.09L21.4-12.09Q19.46-12.09 18.4-10.71 17.35-9.34 17.35-6.9L17.35-6.9Q17.35-5 17.97-3.48 18.58-1.96 19.69-1.1 20.8-0.24 22.19-0.24L22.19-0.24ZM32.92-2.4L32.92-11.93 33.46-11.89 33.46-2.4Q33.46-1.35 33.87-0.79 34.27-0.24 35.06-0.24L35.06-0.24Q35.12-0.24 35.12-0.12 35.12 0 35.06 0L35.06 0Q34.55 0 34.27-0.02L34.27-0.02 33.22-0.04 32.05-0.02Q31.73 0 31.14 0L31.14 0Q31.08 0 31.08-0.12 31.08-0.24 31.14-0.24L31.14-0.24Q31.99-0.24 32.46-0.79 32.92-1.35 32.92-2.4L32.92-2.4ZM42.99 0.28Q42.99 0.34 42.9 0.36 42.8 0.38 42.76 0.34L42.76 0.34 33.22-10.76Q32.55-11.54 32.03-11.84 31.52-12.15 31.02-12.15L31.02-12.15Q30.96-12.15 30.96-12.27 30.96-12.39 31.02-12.39L31.02-12.39 31.81-12.37Q32.05-12.35 32.53-12.35L32.53-12.35 33.8-12.37Q34.03-12.39 34.35-12.39L34.35-12.39Q34.51-12.39 34.59-12.31 34.67-12.23 34.83-11.99L34.83-11.99Q35.16-11.54 35.32-11.36L35.32-11.36 42.84-2.52 42.99 0.28ZM42.99-9.97L42.99 0.28 42.46-0.32 42.46-9.97Q42.46-11.02 42.05-11.59 41.65-12.15 40.85-12.15L40.85-12.15Q40.81-12.15 40.81-12.27 40.81-12.39 40.85-12.39L40.85-12.39 41.67-12.37Q42.3-12.33 42.72-12.33L42.72-12.33Q43.09-12.33 43.81-12.37L43.81-12.37 44.64-12.39Q44.7-12.39 44.7-12.27 44.7-12.15 44.64-12.15L44.64-12.15Q43.85-12.15 43.42-11.59 42.99-11.02 42.99-9.97L42.99-9.97ZM49.21-10.29Q49.21-9.55 49.57-8.99 49.94-8.42 50.48-8.02 51.01-7.61 51.94-7.02L51.94-7.02Q52.95-6.38 53.54-5.93 54.12-5.47 54.54-4.81 54.96-4.14 54.96-3.25L54.96-3.25Q54.96-2.24 54.43-1.45 53.91-0.65 52.94-0.21 51.98 0.24 50.75 0.24L50.75 0.24Q49.92 0.24 49.04 0.02 48.16-0.2 47.7-0.52L47.7-0.52Q47.52-0.63 47.5-0.89L47.5-0.89 47.38-3.89 47.38-3.91Q47.38-3.98 47.48-3.99 47.58-4 47.6-3.92L47.6-3.92Q48.26-2.3 49.1-1.25 49.94-0.2 51.23-0.2L51.23-0.2Q52.1-0.2 52.68-0.66 53.25-1.13 53.25-2.22L53.25-2.22Q53.25-3.09 52.87-3.75 52.48-4.4 51.91-4.84 51.35-5.27 50.38-5.91L50.38-5.91Q49.43-6.52 48.89-6.95 48.36-7.37 47.98-8 47.6-8.62 47.6-9.46L47.6-9.46Q47.6-10.49 48.18-11.2 48.75-11.91 49.67-12.26 50.6-12.61 51.61-12.61L51.61-12.61Q52.26-12.61 52.93-12.48 53.61-12.35 54.08-12.15L54.08-12.15Q54.38-12.03 54.38-11.77L54.38-11.77 54.42-9.1Q54.42-9.02 54.33-9 54.24-8.98 54.2-9.04L54.2-9.04Q53.81-10.25 53.14-11.23 52.48-12.21 51.15-12.21L51.15-12.21Q50.26-12.21 49.73-11.69 49.21-11.16 49.21-10.29L49.21-10.29ZM68.33-9.97Q68.33-11 67.86-11.58 67.39-12.15 66.52-12.15L66.52-12.15Q66.48-12.15 66.48-12.27 66.48-12.39 66.52-12.39L66.52-12.39 67.43-12.37Q68.19-12.33 68.62-12.33L68.62-12.33Q68.98-12.33 69.69-12.37L69.69-12.37 70.57-12.39Q70.61-12.39 70.61-12.27 70.61-12.15 70.57-12.15L70.57-12.15Q69.79-12.15 69.37-11.58 68.94-11 68.94-9.97L68.94-9.97 68.94-4.42Q68.94-2.99 68.34-1.93 67.73-0.87 66.63-0.3 65.53 0.28 64.08 0.28L64.08 0.28Q62.64 0.28 61.51-0.29 60.38-0.85 59.75-1.91 59.13-2.97 59.13-4.4L59.13-4.4 59.13-10.78Q59.13-11.38 59.01-11.66 58.89-11.93 58.58-12.04 58.28-12.15 57.62-12.15L57.62-12.15Q57.56-12.15 57.56-12.27 57.56-12.39 57.62-12.39L57.62-12.39 58.65-12.37Q59.52-12.33 60.06-12.33L60.06-12.33Q60.65-12.33 61.53-12.37L61.53-12.37 62.52-12.39Q62.58-12.39 62.58-12.27 62.58-12.15 62.52-12.15L62.52-12.15Q61.86-12.15 61.55-12.03 61.23-11.91 61.12-11.63 61.01-11.34 61.01-10.74L61.01-10.74 61.01-5.09Q61.01-2.74 61.99-1.58 62.97-0.42 64.74-0.42L64.74-0.42Q66.42-0.42 67.37-1.46 68.33-2.5 68.33-4.4L68.33-4.4 68.33-9.97ZM75.93-1.68Q75.93-1.17 76.03-0.92 76.13-0.67 76.38-0.59 76.64-0.52 77.22-0.52L77.22-0.52 78.41-0.52Q79.81-0.52 80.78-1.3 81.76-2.08 82.07-3.41L82.07-3.41Q82.07-3.45 82.15-3.45L82.15-3.45Q82.19-3.45 82.24-3.42 82.29-3.39 82.29-3.37L82.29-3.37Q82.11-1.55 82.11-0.3L82.11-0.3Q82.11-0.14 82.05-0.07 81.99 0 81.81 0L81.81 0 72.54 0Q72.5 0 72.5-0.12 72.5-0.24 72.54-0.24L72.54-0.24Q73.21-0.24 73.52-0.34 73.83-0.44 73.93-0.72 74.04-1.01 74.04-1.61L74.04-1.61 74.04-10.78Q74.04-11.38 73.93-11.66 73.83-11.93 73.51-12.04 73.19-12.15 72.54-12.15L72.54-12.15Q72.5-12.15 72.5-12.27 72.5-12.39 72.54-12.39L72.54-12.39 73.55-12.37Q74.42-12.33 74.98-12.33L74.98-12.33Q75.57-12.33 76.44-12.37L76.44-12.37 77.43-12.39Q77.49-12.39 77.49-12.27 77.49-12.15 77.43-12.15L77.43-12.15Q76.78-12.15 76.46-12.04 76.15-11.93 76.04-11.65 75.93-11.36 75.93-10.76L75.93-10.76 75.93-1.68ZM87.33-11.97Q86.13-11.97 85.35-11.23 84.58-10.49 84.16-9L84.16-9Q84.16-8.94 84.05-8.95 83.94-8.96 83.94-9L83.94-9Q84.02-9.77 84.12-10.99 84.22-12.21 84.22-12.83L84.22-12.83Q84.22-12.92 84.33-12.92 84.44-12.92 84.44-12.83L84.44-12.83Q84.44-12.39 85.55-12.39L85.55-12.39Q87.25-12.33 89.53-12.33L89.53-12.33Q90.7-12.33 92.01-12.37L92.01-12.37 93.36-12.39Q94.11-12.39 94.46-12.49 94.81-12.59 94.91-12.89L94.91-12.89Q94.93-12.96 95.03-12.96 95.12-12.96 95.12-12.89L95.12-12.89Q95.07-12.27 95.01-11.02 94.95-9.77 94.95-9L94.95-9Q94.95-8.96 94.84-8.96 94.73-8.96 94.71-9L94.71-9Q94.51-10.53 93.78-11.25 93.04-11.97 91.79-11.97L91.79-11.97Q91.24-11.97 90.97-11.87 90.7-11.77 90.61-11.53 90.51-11.28 90.51-10.74L90.51-10.74 90.51-1.61Q90.51-1.01 90.63-0.72 90.76-0.44 91.12-0.34 91.48-0.24 92.25-0.24L92.25-0.24Q92.31-0.24 92.31-0.12 92.31 0 92.25 0L92.25 0Q91.56 0 91.16-0.02L91.16-0.02 89.53-0.04 87.99-0.02Q87.57 0 86.84 0L86.84 0Q86.8 0 86.8-0.12 86.8-0.24 86.84-0.24L86.84-0.24Q87.61-0.24 87.98-0.34 88.35-0.44 88.47-0.72 88.6-1.01 88.6-1.61L88.6-1.61 88.6-10.78Q88.6-11.3 88.5-11.55 88.4-11.79 88.15-11.88 87.89-11.97 87.33-11.97L87.33-11.97ZM101.16-1.61Q101.16-0.99 101.27-0.71 101.38-0.44 101.69-0.34 101.99-0.24 102.67-0.24L102.67-0.24Q102.73-0.24 102.73-0.12 102.73 0 102.67 0L102.67 0Q102.03 0 101.66-0.02L101.66-0.02 100.19-0.04 98.76-0.02Q98.38 0 97.73 0L97.73 0Q97.67 0 97.67-0.12 97.67-0.24 97.73-0.24L97.73-0.24Q98.4-0.24 98.71-0.34 99.02-0.44 99.14-0.72 99.26-1.01 99.26-1.61L99.26-1.61 99.26-10.78Q99.26-11.38 99.14-11.66 99.02-11.93 98.71-12.04 98.4-12.15 97.73-12.15L97.73-12.15Q97.67-12.15 97.67-12.27 97.67-12.39 97.73-12.39L97.73-12.39 98.76-12.37Q99.63-12.33 100.19-12.33L100.19-12.33Q100.8-12.33 101.68-12.37L101.68-12.37 102.67-12.39Q102.73-12.39 102.73-12.27 102.73-12.15 102.67-12.15L102.67-12.15Q102.01-12.15 101.7-12.03 101.38-11.91 101.27-11.63 101.16-11.34 101.16-10.74L101.16-10.74 101.16-1.61ZM107.06-2.4L107.06-11.93 107.59-11.89 107.59-2.4Q107.59-1.35 108-0.79 108.4-0.24 109.2-0.24L109.2-0.24Q109.26-0.24 109.26-0.12 109.26 0 109.2 0L109.2 0Q108.68 0 108.4-0.02L108.4-0.02 107.35-0.04 106.18-0.02Q105.87 0 105.27 0L105.27 0Q105.21 0 105.21-0.12 105.21-0.24 105.27-0.24L105.27-0.24Q106.12-0.24 106.59-0.79 107.06-1.35 107.06-2.4L107.06-2.4ZM117.13 0.28Q117.13 0.34 117.03 0.36 116.93 0.38 116.89 0.34L116.89 0.34 107.35-10.76Q106.68-11.54 106.16-11.84 105.65-12.15 105.15-12.15L105.15-12.15Q105.09-12.15 105.09-12.27 105.09-12.39 105.15-12.39L105.15-12.39 105.95-12.37Q106.18-12.35 106.66-12.35L106.66-12.35 107.93-12.37Q108.17-12.39 108.48-12.39L108.48-12.39Q108.64-12.39 108.72-12.31 108.8-12.23 108.96-11.99L108.96-11.99Q109.3-11.54 109.45-11.36L109.45-11.36 116.97-2.52 117.13 0.28ZM117.13-9.97L117.13 0.28 116.59-0.32 116.59-9.97Q116.59-11.02 116.18-11.59 115.78-12.15 114.99-12.15L114.99-12.15Q114.95-12.15 114.95-12.27 114.95-12.39 114.99-12.39L114.99-12.39 115.8-12.37Q116.43-12.33 116.85-12.33L116.85-12.33Q117.23-12.33 117.94-12.37L117.94-12.37 118.77-12.39Q118.83-12.39 118.83-12.27 118.83-12.15 118.77-12.15L118.77-12.15Q117.98-12.15 117.55-11.59 117.13-11.02 117.13-9.97L117.13-9.97ZM128.18 0.24Q126 0.24 124.38-0.59 122.76-1.43 121.91-2.86 121.06-4.3 121.06-6.07L121.06-6.07Q121.06-7.97 122.04-9.47 123.02-10.96 124.74-11.78 126.45-12.61 128.59-12.61L128.59-12.61Q129.52-12.61 130.46-12.45 131.39-12.29 131.96-12.01L131.96-12.01Q132.12-11.93 132.17-11.85 132.22-11.77 132.24-11.56L132.24-11.56 132.48-8.98Q132.48-8.92 132.38-8.91 132.28-8.9 132.24-8.96L132.24-8.96Q131.65-10.45 130.46-11.28 129.27-12.11 127.66-12.11L127.66-12.11Q125.48-12.11 124.31-10.69 123.14-9.28 123.14-6.8L123.14-6.8Q123.14-4.86 123.86-3.33 124.57-1.8 125.83-0.95 127.09-0.1 128.65-0.1L128.65-0.1Q129.52-0.1 130-0.28 130.48-0.46 130.7-0.97 130.93-1.49 130.93-2.5L130.93-2.5Q130.93-3.53 130.81-3.93 130.69-4.34 130.29-4.48 129.88-4.62 128.87-4.62L128.87-4.62Q128.75-4.62 128.75-4.78L128.75-4.78Q128.75-4.84 128.78-4.89 128.81-4.94 128.85-4.94L128.85-4.94Q130.5-4.84 131.49-4.84L131.49-4.84Q132.48-4.84 133.55-4.9L133.55-4.9Q133.59-4.9 133.62-4.85 133.65-4.8 133.65-4.76L133.65-4.76Q133.65-4.62 133.55-4.62L133.55-4.62Q133.15-4.64 132.98-4.49 132.82-4.34 132.78-3.9 132.74-3.45 132.74-2.3L132.74-2.3Q132.74-1.41 132.81-1.03 132.87-0.65 132.87-0.56L132.87-0.56Q132.87-0.44 132.84-0.41 132.8-0.38 132.64-0.32L132.64-0.32Q130.14 0.24 128.18 0.24L128.18 0.24Z" transform="translate(-0.9700000286102295, 12.960000038146973)"></path>
              </g>
            </g>
          </g>
        </g>
      </g>
    </mask>
    <defs></defs>
  </g>
</svg>